mtllib WpnPitBowArrow.mtl

v -0.003237 -0.039536 1.603585
v 0.000000 -2.346412 -5.128999
v 0.000000 -2.515114 1.603585
v -0.003237 -0.017578 -5.128999
v 0.000000 2.473125 -5.128999
v -0.003237 0.001218 -11.191162
v 0.000000 2.204558 -11.191162
v 0.000000 2.473125 -5.128999
v 0.003237 0.001218 -11.191162
v 0.000000 2.204558 -11.191162
v 0.003237 -0.017578 -5.128999
v 0.000000 2.641838 1.603585
v 0.003237 -0.039536 1.603585
v 0.000000 -2.077842 -11.191162
v 0.000000 -2.515114 1.603585
v 0.000000 -2.346412 -5.128999
v 0.000000 -2.077842 -11.191162
v 0.000000 2.641838 1.603585

vt 0.010058 0.017022
vt 0.722083 0.572727
vt 0.010059 0.572727
vt 0.722083 0.017023
vt 0.722083 0.572727
vt 0.989395 0.017022
vt 0.989388 0.572727
vt 0.722083 0.572727
vt 0.989395 0.017022
vt 0.989388 0.572727
vt 0.722083 0.017023
vt 0.010059 0.572727
vt 0.010058 0.017022
vt 0.989388 0.572727
vt 0.010059 0.572727
vt 0.722083 0.572727
vt 0.989388 0.572727
vt 0.010059 0.572727

vn -0.999999 0.001316 -0.000021
vn -0.999999 0.001316 -0.000021
vn -0.999999 0.001316 -0.000021
vn -0.999999 0.001316 -0.000021
vn -0.999999 0.001316 -0.000021
vn -0.999999 0.001316 -0.000021
vn -0.999999 0.001316 -0.000021
vn 0.999999 -0.001469 -0.000035
vn 0.999999 -0.001469 -0.000035
vn 0.999999 -0.001469 -0.000035
vn 0.999999 -0.001469 -0.000035
vn 0.999999 -0.001469 -0.000035
vn 0.999999 -0.001469 -0.000035
vn -0.999999 0.001316 -0.000021
vn 0.999999 -0.001469 -0.000035
vn 0.999999 -0.001469 -0.000035
vn 0.999999 -0.001469 -0.000035
vn -0.999999 0.001316 -0.000021

g polygon0
s 1
usemtl mat1
f 1/1/1 2/2/2 3/3/3
f 1/1/1 4/4/4 2/2/2
f 5/5/5 4/4/4 1/1/1
f 5/5/5 6/6/6 4/4/4
f 7/7/7 6/6/6 5/5/5
f 8/8/8 9/9/9 10/10/10
f 8/8/8 11/11/11 9/9/9
f 12/12/12 11/11/11 8/8/8
f 12/12/12 13/13/13 11/11/11
f 2/2/2 6/6/6 14/14/14
f 2/2/2 4/4/4 6/6/6
f 15/15/15 11/11/11 13/13/13
f 15/15/15 16/16/16 11/11/11
f 9/9/9 16/16/16 17/17/17
f 9/9/9 11/11/11 16/16/16
f 1/1/1 18/18/18 5/5/5

v -0.000069 0.559632 -1.556596
v 0.025960 0.447232 -1.962846
v -0.000066 1.021479 -2.150771
v 0.051986 -0.033814 -1.699371
v -0.000073 0.276752 -1.046947
v 0.035342 -0.033814 -1.067910
v -0.000053 0.135265 -0.583608
v -0.000033 -0.033814 0.003782
v -0.000098 -0.577569 -1.556596
v -0.026128 -0.424268 -1.962846
v -0.000124 -0.938077 -2.150771
v -0.052132 -0.033814 -1.699371
v -0.000073 -0.391611 -1.046947
v -0.035488 -0.033814 -1.067910
v -0.000053 -0.226505 -0.583608
v -0.000033 -0.033814 0.003782
v 0.038259 0.000488 -11.179512
v -0.000051 -0.183255 -6.672681
v -0.000051 -0.125979 -11.179512
v 0.038259 -0.018529 -6.672681
v -0.000051 0.126956 -11.179512
v -0.000051 0.146192 -6.672681
v -0.038361 -0.040746 -1.635171
v -0.000051 -0.183255 -6.672681
v -0.000051 -0.250165 -1.635171
v -0.038361 -0.018529 -6.672681
v -0.000051 0.168668 -1.635171
v -0.000051 0.146192 -6.672681
v -0.000073 -0.033814 -1.658737
v 0.025931 -0.424268 -1.962846
v -0.000124 -0.938077 -2.150771
v 0.051986 -0.033814 -1.699371
v 0.025960 0.447232 -1.962846
v -0.000066 1.021479 -2.150771
v -0.026099 0.447232 -1.962846
v -0.052132 -0.033814 -1.699371
v 0.038259 -0.040746 -1.635171
v -0.000051 0.168668 -1.635171
v -0.000098 -0.577569 -1.556596
v -0.000073 -0.033814 -1.658737
v -0.000073 -0.391611 -1.046947
v -0.000124 -0.938077 -2.150771
v -0.000053 -0.226505 -0.583608
v -0.000073 -0.391611 -1.046947
v -0.000098 -0.577569 -1.556596
v 0.025931 -0.424268 -1.962846
v -0.000124 -0.938077 -2.150771
v -0.000053 0.135265 -0.583608
v -0.000073 0.276752 -1.046947
v -0.000073 -0.033814 -1.658737
v -0.000098 -0.577569 -1.556596
v -0.000073 -0.391611 -1.046947
v -0.000124 -0.938077 -2.150771
v -0.026128 -0.424268 -1.962846
v -0.000124 -0.938077 -2.150771
v -0.000069 0.559632 -1.556596
v -0.026099 0.447232 -1.962846
v -0.000066 1.021479 -2.150771
v -0.000051 0.126956 -11.179512
v -0.038361 0.000488 -11.179512
v -0.000051 -0.125979 -11.179512
v -0.000051 -0.250165 -1.635171

vt 0.165620 0.937505
vt 0.195748 0.811473
vt 0.191261 0.983242
vt 0.200236 0.639705
vt 0.139979 0.891769
vt 0.139697 0.639837
vt 0.088466 0.773436
vt 0.036953 0.646470
vt 0.164560 0.937745
vt 0.194989 0.812244
vt 0.189729 0.984106
vt 0.200250 0.640382
vt 0.139392 0.891384
vt 0.139707 0.640298
vt 0.088172 0.773244
vt 0.036953 0.646470
vt 0.973818 0.643032
vt 0.419087 0.952084
vt 0.973676 0.952084
vt 0.419087 0.643032
vt 0.973971 0.952084
vt 0.419087 0.952084
vt 0.270148 0.643032
vt 0.419087 0.952084
vt 0.270148 0.952084
vt 0.419087 0.643032
vt 0.270148 0.952084
vt 0.419087 0.952084
vt 0.196347 0.640045
vt 0.194982 0.811905
vt 0.189729 0.984106
vt 0.200236 0.639705
vt 0.195748 0.811473
vt 0.191261 0.983242
vt 0.195755 0.811812
vt 0.200250 0.640382
vt 0.270148 0.643032
vt 0.270148 0.952084
vt 0.164560 0.937745
vt 0.196347 0.640045
vt 0.139392 0.891384
vt 0.189729 0.984106
vt 0.088172 0.773244
vt 0.139392 0.891384
vt 0.164560 0.937745
vt 0.194982 0.811905
vt 0.189729 0.984106
vt 0.088466 0.773436
vt 0.139979 0.891769
vt 0.196347 0.640045
vt 0.164560 0.937745
vt 0.139392 0.891384
vt 0.189729 0.984106
vt 0.194989 0.812244
vt 0.189729 0.984106
vt 0.165620 0.937505
vt 0.195755 0.811812
vt 0.191261 0.983242
vt 0.973971 0.952084
vt 0.973829 0.643032
vt 0.973676 0.952084
vt 0.270148 0.952084

vn 0.996618 0.068885 0.044797
vn 0.996618 0.068885 0.044797
vn 0.996618 0.068885 0.044797
vn 0.999438 -0.000922 0.033514
vn 0.994410 0.099873 0.034279
vn 0.999438 -0.000922 0.033514
vn 0.993096 0.112479 0.033311
vn 0.999438 -0.000922 0.033514
vn -0.996486 -0.076028 0.035158
vn -0.996486 -0.076028 0.035158
vn -0.997115 -0.064877 0.039406
vn -0.999486 0.007193 0.031256
vn -0.994586 -0.098313 0.033653
vn -0.999486 0.007193 0.031256
vn -0.994586 -0.098313 0.033653
vn -0.999486 0.007193 0.031256
vn 1.000000 -0.000051 -0.000022
vn 0.973746 -0.227628 -0.001965
vn 0.967081 -0.254460 -0.002154
vn 1.000000 -0.000051 -0.000022
vn 0.967082 0.254465 -0.000006
vn 0.973747 0.227633 -0.000006
vn -1.000000 0.000051 0.000022
vn -0.973746 -0.227628 -0.001965
vn -0.979667 -0.200622 -0.001775
vn -1.000000 0.000051 0.000022
vn -0.979667 0.200628 -0.000005
vn -0.973747 0.227634 -0.000006
vn 0.000002 0.040165 -0.999193
vn -0.790382 0.342805 -0.507721
vn -0.951506 0.147074 -0.270195
vn -0.614740 0.042501 -0.787584
vn -0.788955 -0.297264 -0.537759
vn 0.000002 -0.422578 -0.906327
vn 0.788955 -0.297273 -0.537754
vn 0.614741 0.042468 -0.787585
vn 1.000000 -0.000051 -0.000022
vn 0.979668 0.200628 -0.000005
vn 1.000000 -0.000051 -0.000022
vn 1.000000 -0.000051 -0.000022
vn 1.000000 -0.000051 -0.000022
vn 1.000000 -0.000051 -0.000022
vn 0.995146 -0.093481 0.030755
vn 0.995146 -0.093481 0.030755
vn 0.996234 -0.079766 0.033986
vn 0.996234 -0.079766 0.033986
vn 0.997111 -0.064964 0.039373
vn -0.993092 0.112486 0.033389
vn -0.994408 0.099875 0.034305
vn -1.000000 0.000051 0.000022
vn -1.000000 0.000051 0.000022
vn -1.000000 0.000051 0.000022
vn -1.000000 0.000051 0.000022
vn 0.790381 0.342738 -0.507768
vn 0.951497 0.147005 -0.270264
vn -0.996455 0.071630 0.044124
vn -0.996455 0.071630 0.044124
vn -0.997049 0.060618 0.047112
vn -0.967082 0.254466 -0.000006
vn -1.000000 0.000051 0.000022
vn -0.967081 -0.254460 -0.002154
vn 0.979667 -0.200621 -0.001775

g polygon1
s 1
usemtl mat2
f 19/19/19 20/20/20 21/21/21
f 19/19/19 22/22/22 20/20/20
f 23/23/23 22/22/22 19/19/19
f 23/23/23 24/24/24 22/22/22
f 25/25/25 24/24/24 23/23/23
f 25/25/25 26/26/26 24/24/24
f 27/27/27 28/28/28 29/29/29
f 27/27/27 30/30/30 28/28/28
f 31/31/31 30/30/30 27/27/27
f 31/31/31 32/32/32 30/30/30
f 33/33/33 32/32/32 31/31/31
f 33/33/33 34/34/34 32/32/32
f 35/35/35 36/36/36 37/37/37
f 35/35/35 38/38/38 36/36/36
f 39/39/39 38/38/38 35/35/35
f 39/39/39 40/40/40 38/38/38
f 41/41/41 42/42/42 43/43/43
f 41/41/41 44/44/44 42/42/42
f 45/45/45 44/44/44 41/41/41
f 45/45/45 46/46/46 44/44/44
f 47/47/47 48/48/48 49/49/49
f 47/47/47 50/50/50 48/48/48
f 51/51/51 50/50/50 47/47/47
f 47/47/47 52/52/52 51/51/51
f 47/47/47 53/53/53 52/52/52
f 54/54/54 53/53/53 47/47/47
f 55/55/55 40/40/40 56/56/56
f 55/55/55 38/38/38 40/40/40
f 36/36/36 38/38/38 55/55/55
f 57/57/57 58/58/58 59/59/59
f 57/57/57 60/60/60 58/58/58
f 61/61/61 24/24/24 26/26/26
f 61/61/61 62/62/62 24/24/24
f 62/62/62 22/22/22 24/24/24
f 62/62/62 63/63/63 22/22/22
f 63/63/63 64/64/64 22/22/22
f 63/63/63 65/65/65 64/64/64
f 66/66/66 32/32/32 34/34/34
f 66/66/66 67/67/67 32/32/32
f 68/68/68 69/69/69 70/70/70
f 68/68/68 71/71/71 69/69/69
f 47/47/47 72/72/72 54/54/54
f 47/47/47 73/73/73 72/72/72
f 67/67/67 30/30/30 32/32/32
f 67/67/67 74/74/74 30/30/30
f 74/74/74 75/75/75 30/30/30
f 74/74/74 76/76/76 75/75/75
f 77/77/77 44/44/44 46/46/46
f 77/77/77 78/78/78 44/44/44
f 79/79/79 44/44/44 78/78/78
f 79/79/79 42/42/42 44/44/44
f 80/80/80 36/36/36 55/55/55

